<svg width="13" height="26" viewBox="0 0 13 26" fill="none" xmlns="http://www.w3.org/2000/svg">
<path d="M6.86349 0.430722C3.48959 0.403182 0.732912 3.11676 0.707293 6.49068L0.514593 20.4114C0.493956 23.0308 2.60901 25.1795 5.22848 25.2001C7.84794 25.2208 9.9961 23.1062 10.0163 20.4872L10.2085 6.56601C10.2232 4.6914 8.71623 3.16045 6.84162 3.14569C4.96749 3.1314 3.43606 4.63889 3.42178 6.51207L3.33884 17.0398C3.33636 17.4156 3.63681 17.7208 4.01259 17.7243C4.3879 17.7272 4.69361 17.4263 4.69656 17.051L4.77951 6.52228C4.78883 5.39973 5.70885 4.49409 6.83141 4.50245C7.95445 4.5113 8.86056 5.4318 8.85172 6.55484L8.65902 20.4755C8.64425 22.3501 7.11378 23.8567 5.23917 23.8419C3.36504 23.8276 1.85755 22.2962 1.8728 20.4221L2.06299 6.63719C2.08366 4.01293 4.22844 1.90168 6.85076 1.92426C9.47647 1.94447 11.5858 4.08731 11.5651 6.71157L11.4837 17.1035C11.4803 17.4803 11.7808 17.7855 12.157 17.7875C12.5328 17.7909 12.8385 17.49 12.841 17.1142L12.9234 6.58692C12.951 3.21302 10.2374 0.456342 6.86349 0.430722Z" fill="#525252"/>
</svg>
